<mxfile host="app.diagrams.net" modified="2021-01-21T11:48:48.593Z" agent="5.0 (Windows)" etag="s_b9MyJAFBFdh1G5sO3q" version="14.2.6" type="github">
  <diagram id="C5RBs43oDa-KdzZeNtuy" name="Page-1">
    <mxGraphModel dx="2249" dy="791" grid="1" gridSize="10" guides="1" tooltips="1" connect="1" arrows="1" fold="1" page="1" pageScale="1" pageWidth="827" pageHeight="1169" math="0" shadow="0">
      <root>
        <mxCell id="WIyWlLk6GJQsqaUBKTNV-0" />
        <mxCell id="WIyWlLk6GJQsqaUBKTNV-1" parent="WIyWlLk6GJQsqaUBKTNV-0" />
        <mxCell id="OkiWoQopOx5-v4XApyoQ-30" value="" style="group" vertex="1" connectable="0" parent="WIyWlLk6GJQsqaUBKTNV-1">
          <mxGeometry x="400" y="120" width="180" height="150" as="geometry" />
        </mxCell>
        <mxCell id="OkiWoQopOx5-v4XApyoQ-18" value="&lt;div&gt;Peliculas&lt;/div&gt;" style="shape=table;html=1;whiteSpace=wrap;startSize=30;container=1;collapsible=0;childLayout=tableLayout;fixedRows=1;rowLines=0;fontStyle=1;align=center;" vertex="1" parent="OkiWoQopOx5-v4XApyoQ-30">
          <mxGeometry width="180" height="150" as="geometry" />
        </mxCell>
        <mxCell id="OkiWoQopOx5-v4XApyoQ-19" value="" style="shape=partialRectangle;html=1;whiteSpace=wrap;collapsible=0;dropTarget=0;pointerEvents=0;fillColor=none;top=0;left=0;bottom=1;right=0;points=[[0,0.5],[1,0.5]];portConstraint=eastwest;" vertex="1" parent="OkiWoQopOx5-v4XApyoQ-18">
          <mxGeometry y="30" width="180" height="30" as="geometry" />
        </mxCell>
        <mxCell id="OkiWoQopOx5-v4XApyoQ-20" value="1" style="shape=partialRectangle;html=1;whiteSpace=wrap;connectable=0;fillColor=none;top=0;left=0;bottom=0;right=0;overflow=hidden;" vertex="1" parent="OkiWoQopOx5-v4XApyoQ-19">
          <mxGeometry width="40" height="30" as="geometry" />
        </mxCell>
        <mxCell id="OkiWoQopOx5-v4XApyoQ-21" value="&lt;div&gt;Id_Peliculas&lt;/div&gt;" style="shape=partialRectangle;html=1;whiteSpace=wrap;connectable=0;fillColor=none;top=0;left=0;bottom=0;right=0;align=left;spacingLeft=6;overflow=hidden;" vertex="1" parent="OkiWoQopOx5-v4XApyoQ-19">
          <mxGeometry x="40" width="140" height="30" as="geometry" />
        </mxCell>
        <mxCell id="OkiWoQopOx5-v4XApyoQ-22" value="" style="shape=partialRectangle;html=1;whiteSpace=wrap;collapsible=0;dropTarget=0;pointerEvents=0;fillColor=none;top=0;left=0;bottom=0;right=0;points=[[0,0.5],[1,0.5]];portConstraint=eastwest;" vertex="1" parent="OkiWoQopOx5-v4XApyoQ-18">
          <mxGeometry y="60" width="180" height="30" as="geometry" />
        </mxCell>
        <mxCell id="OkiWoQopOx5-v4XApyoQ-23" value="2" style="shape=partialRectangle;html=1;whiteSpace=wrap;connectable=0;fillColor=none;top=0;left=0;bottom=0;right=0;overflow=hidden;" vertex="1" parent="OkiWoQopOx5-v4XApyoQ-22">
          <mxGeometry width="40" height="30" as="geometry" />
        </mxCell>
        <mxCell id="OkiWoQopOx5-v4XApyoQ-24" value="Nombre_Pelicula" style="shape=partialRectangle;html=1;whiteSpace=wrap;connectable=0;fillColor=none;top=0;left=0;bottom=0;right=0;align=left;spacingLeft=6;overflow=hidden;" vertex="1" parent="OkiWoQopOx5-v4XApyoQ-22">
          <mxGeometry x="40" width="140" height="30" as="geometry" />
        </mxCell>
        <mxCell id="OkiWoQopOx5-v4XApyoQ-25" value="" style="shape=partialRectangle;html=1;whiteSpace=wrap;collapsible=0;dropTarget=0;pointerEvents=0;fillColor=none;top=0;left=0;bottom=0;right=0;points=[[0,0.5],[1,0.5]];portConstraint=eastwest;" vertex="1" parent="OkiWoQopOx5-v4XApyoQ-18">
          <mxGeometry y="90" width="180" height="30" as="geometry" />
        </mxCell>
        <mxCell id="OkiWoQopOx5-v4XApyoQ-26" value="3" style="shape=partialRectangle;html=1;whiteSpace=wrap;connectable=0;fillColor=none;top=0;left=0;bottom=0;right=0;overflow=hidden;" vertex="1" parent="OkiWoQopOx5-v4XApyoQ-25">
          <mxGeometry width="40" height="30" as="geometry" />
        </mxCell>
        <mxCell id="OkiWoQopOx5-v4XApyoQ-27" value="&lt;div&gt;ICAA &lt;br&gt;&lt;/div&gt;" style="shape=partialRectangle;html=1;whiteSpace=wrap;connectable=0;fillColor=none;top=0;left=0;bottom=0;right=0;align=left;spacingLeft=6;overflow=hidden;" vertex="1" parent="OkiWoQopOx5-v4XApyoQ-25">
          <mxGeometry x="40" width="140" height="30" as="geometry" />
        </mxCell>
        <mxCell id="OkiWoQopOx5-v4XApyoQ-28" value="&lt;div&gt;4&lt;/div&gt;" style="shape=partialRectangle;html=1;whiteSpace=wrap;connectable=0;fillColor=none;top=0;left=0;bottom=0;right=0;overflow=hidden;" vertex="1" parent="OkiWoQopOx5-v4XApyoQ-30">
          <mxGeometry y="120" width="40" height="30" as="geometry" />
        </mxCell>
        <mxCell id="OkiWoQopOx5-v4XApyoQ-29" value="Fecha_estreno" style="shape=partialRectangle;html=1;whiteSpace=wrap;connectable=0;fillColor=none;top=0;left=0;bottom=0;right=0;align=left;spacingLeft=6;overflow=hidden;" vertex="1" parent="OkiWoQopOx5-v4XApyoQ-30">
          <mxGeometry x="40" y="120" width="140" height="30" as="geometry" />
        </mxCell>
        <mxCell id="OkiWoQopOx5-v4XApyoQ-31" value="" style="group" vertex="1" connectable="0" parent="WIyWlLk6GJQsqaUBKTNV-1">
          <mxGeometry x="-600" y="120" width="180" height="200" as="geometry" />
        </mxCell>
        <mxCell id="OkiWoQopOx5-v4XApyoQ-17" value="" style="group" vertex="1" connectable="0" parent="OkiWoQopOx5-v4XApyoQ-31">
          <mxGeometry width="180" height="200" as="geometry" />
        </mxCell>
        <mxCell id="OkiWoQopOx5-v4XApyoQ-10" value="&lt;div&gt;4&lt;/div&gt;" style="shape=partialRectangle;html=1;whiteSpace=wrap;connectable=0;fillColor=none;top=0;left=0;bottom=0;right=0;overflow=hidden;" vertex="1" parent="OkiWoQopOx5-v4XApyoQ-17">
          <mxGeometry y="120" width="40" height="30" as="geometry" />
        </mxCell>
        <mxCell id="OkiWoQopOx5-v4XApyoQ-11" value="&lt;div&gt;Edad&lt;/div&gt;" style="shape=partialRectangle;html=1;whiteSpace=wrap;connectable=0;fillColor=none;top=0;left=0;bottom=0;right=0;align=left;spacingLeft=6;overflow=hidden;" vertex="1" parent="OkiWoQopOx5-v4XApyoQ-17">
          <mxGeometry x="40" y="120" width="140" height="30" as="geometry" />
        </mxCell>
        <mxCell id="OkiWoQopOx5-v4XApyoQ-15" value="&lt;div&gt;5&lt;/div&gt;" style="shape=partialRectangle;html=1;whiteSpace=wrap;connectable=0;fillColor=none;top=0;left=0;bottom=0;right=0;overflow=hidden;" vertex="1" parent="OkiWoQopOx5-v4XApyoQ-17">
          <mxGeometry y="150" width="40" height="30" as="geometry" />
        </mxCell>
        <mxCell id="OkiWoQopOx5-v4XApyoQ-16" value="N Telefonico" style="shape=partialRectangle;html=1;whiteSpace=wrap;connectable=0;fillColor=none;top=0;left=0;bottom=0;right=0;align=left;spacingLeft=6;overflow=hidden;" vertex="1" parent="OkiWoQopOx5-v4XApyoQ-17">
          <mxGeometry x="40" y="150" width="140" height="30" as="geometry" />
        </mxCell>
        <mxCell id="OkiWoQopOx5-v4XApyoQ-0" value="&lt;div&gt;Usuario&lt;/div&gt;" style="shape=table;html=1;whiteSpace=wrap;startSize=30;container=1;collapsible=0;childLayout=tableLayout;fixedRows=1;rowLines=0;fontStyle=1;align=center;" vertex="1" parent="OkiWoQopOx5-v4XApyoQ-31">
          <mxGeometry width="180" height="180" as="geometry" />
        </mxCell>
        <mxCell id="OkiWoQopOx5-v4XApyoQ-1" value="" style="shape=partialRectangle;html=1;whiteSpace=wrap;collapsible=0;dropTarget=0;pointerEvents=0;fillColor=none;top=0;left=0;bottom=1;right=0;points=[[0,0.5],[1,0.5]];portConstraint=eastwest;" vertex="1" parent="OkiWoQopOx5-v4XApyoQ-0">
          <mxGeometry y="30" width="180" height="30" as="geometry" />
        </mxCell>
        <mxCell id="OkiWoQopOx5-v4XApyoQ-2" value="1" style="shape=partialRectangle;html=1;whiteSpace=wrap;connectable=0;fillColor=none;top=0;left=0;bottom=0;right=0;overflow=hidden;" vertex="1" parent="OkiWoQopOx5-v4XApyoQ-1">
          <mxGeometry width="40" height="30" as="geometry" />
        </mxCell>
        <mxCell id="OkiWoQopOx5-v4XApyoQ-3" value="Id_Usuario" style="shape=partialRectangle;html=1;whiteSpace=wrap;connectable=0;fillColor=none;top=0;left=0;bottom=0;right=0;align=left;spacingLeft=6;overflow=hidden;" vertex="1" parent="OkiWoQopOx5-v4XApyoQ-1">
          <mxGeometry x="40" width="140" height="30" as="geometry" />
        </mxCell>
        <mxCell id="OkiWoQopOx5-v4XApyoQ-4" value="" style="shape=partialRectangle;html=1;whiteSpace=wrap;collapsible=0;dropTarget=0;pointerEvents=0;fillColor=none;top=0;left=0;bottom=0;right=0;points=[[0,0.5],[1,0.5]];portConstraint=eastwest;" vertex="1" parent="OkiWoQopOx5-v4XApyoQ-0">
          <mxGeometry y="60" width="180" height="30" as="geometry" />
        </mxCell>
        <mxCell id="OkiWoQopOx5-v4XApyoQ-5" value="2" style="shape=partialRectangle;html=1;whiteSpace=wrap;connectable=0;fillColor=none;top=0;left=0;bottom=0;right=0;overflow=hidden;" vertex="1" parent="OkiWoQopOx5-v4XApyoQ-4">
          <mxGeometry width="40" height="30" as="geometry" />
        </mxCell>
        <mxCell id="OkiWoQopOx5-v4XApyoQ-6" value="&lt;div&gt;Nombre y apellido&lt;br&gt;&lt;/div&gt;" style="shape=partialRectangle;html=1;whiteSpace=wrap;connectable=0;fillColor=none;top=0;left=0;bottom=0;right=0;align=left;spacingLeft=6;overflow=hidden;" vertex="1" parent="OkiWoQopOx5-v4XApyoQ-4">
          <mxGeometry x="40" width="140" height="30" as="geometry" />
        </mxCell>
        <mxCell id="OkiWoQopOx5-v4XApyoQ-7" value="" style="shape=partialRectangle;html=1;whiteSpace=wrap;collapsible=0;dropTarget=0;pointerEvents=0;fillColor=none;top=0;left=0;bottom=0;right=0;points=[[0,0.5],[1,0.5]];portConstraint=eastwest;" vertex="1" parent="OkiWoQopOx5-v4XApyoQ-0">
          <mxGeometry y="90" width="180" height="30" as="geometry" />
        </mxCell>
        <mxCell id="OkiWoQopOx5-v4XApyoQ-8" value="3" style="shape=partialRectangle;html=1;whiteSpace=wrap;connectable=0;fillColor=none;top=0;left=0;bottom=0;right=0;overflow=hidden;" vertex="1" parent="OkiWoQopOx5-v4XApyoQ-7">
          <mxGeometry width="40" height="30" as="geometry" />
        </mxCell>
        <mxCell id="OkiWoQopOx5-v4XApyoQ-9" value="&lt;div&gt;Correo Electronico&lt;/div&gt;" style="shape=partialRectangle;html=1;whiteSpace=wrap;connectable=0;fillColor=none;top=0;left=0;bottom=0;right=0;align=left;spacingLeft=6;overflow=hidden;" vertex="1" parent="OkiWoQopOx5-v4XApyoQ-7">
          <mxGeometry x="40" width="140" height="30" as="geometry" />
        </mxCell>
        <mxCell id="OkiWoQopOx5-v4XApyoQ-32" value="&lt;div&gt;Entrada&lt;/div&gt;" style="shape=table;html=1;whiteSpace=wrap;startSize=30;container=1;collapsible=0;childLayout=tableLayout;fixedRows=1;rowLines=0;fontStyle=1;align=center;" vertex="1" parent="WIyWlLk6GJQsqaUBKTNV-1">
          <mxGeometry x="-280" y="120" width="180" height="240" as="geometry" />
        </mxCell>
        <mxCell id="OkiWoQopOx5-v4XApyoQ-33" value="" style="shape=partialRectangle;html=1;whiteSpace=wrap;collapsible=0;dropTarget=0;pointerEvents=0;fillColor=none;top=0;left=0;bottom=1;right=0;points=[[0,0.5],[1,0.5]];portConstraint=eastwest;" vertex="1" parent="OkiWoQopOx5-v4XApyoQ-32">
          <mxGeometry y="30" width="180" height="30" as="geometry" />
        </mxCell>
        <mxCell id="OkiWoQopOx5-v4XApyoQ-34" value="1" style="shape=partialRectangle;html=1;whiteSpace=wrap;connectable=0;fillColor=none;top=0;left=0;bottom=0;right=0;overflow=hidden;" vertex="1" parent="OkiWoQopOx5-v4XApyoQ-33">
          <mxGeometry width="40" height="30" as="geometry" />
        </mxCell>
        <mxCell id="OkiWoQopOx5-v4XApyoQ-35" value="Id_Entrada" style="shape=partialRectangle;html=1;whiteSpace=wrap;connectable=0;fillColor=none;top=0;left=0;bottom=0;right=0;align=left;spacingLeft=6;overflow=hidden;" vertex="1" parent="OkiWoQopOx5-v4XApyoQ-33">
          <mxGeometry x="40" width="140" height="30" as="geometry" />
        </mxCell>
        <mxCell id="OkiWoQopOx5-v4XApyoQ-36" value="" style="shape=partialRectangle;html=1;whiteSpace=wrap;collapsible=0;dropTarget=0;pointerEvents=0;fillColor=none;top=0;left=0;bottom=0;right=0;points=[[0,0.5],[1,0.5]];portConstraint=eastwest;" vertex="1" parent="OkiWoQopOx5-v4XApyoQ-32">
          <mxGeometry y="60" width="180" height="30" as="geometry" />
        </mxCell>
        <mxCell id="OkiWoQopOx5-v4XApyoQ-37" value="2" style="shape=partialRectangle;html=1;whiteSpace=wrap;connectable=0;fillColor=none;top=0;left=0;bottom=0;right=0;overflow=hidden;" vertex="1" parent="OkiWoQopOx5-v4XApyoQ-36">
          <mxGeometry width="40" height="30" as="geometry" />
        </mxCell>
        <mxCell id="OkiWoQopOx5-v4XApyoQ-38" value="F_Id_Usuario" style="shape=partialRectangle;html=1;whiteSpace=wrap;connectable=0;fillColor=none;top=0;left=0;bottom=0;right=0;align=left;spacingLeft=6;overflow=hidden;" vertex="1" parent="OkiWoQopOx5-v4XApyoQ-36">
          <mxGeometry x="40" width="140" height="30" as="geometry" />
        </mxCell>
        <mxCell id="OkiWoQopOx5-v4XApyoQ-39" value="" style="shape=partialRectangle;html=1;whiteSpace=wrap;collapsible=0;dropTarget=0;pointerEvents=0;fillColor=none;top=0;left=0;bottom=0;right=0;points=[[0,0.5],[1,0.5]];portConstraint=eastwest;" vertex="1" parent="OkiWoQopOx5-v4XApyoQ-32">
          <mxGeometry y="90" width="180" height="30" as="geometry" />
        </mxCell>
        <mxCell id="OkiWoQopOx5-v4XApyoQ-40" value="3" style="shape=partialRectangle;html=1;whiteSpace=wrap;connectable=0;fillColor=none;top=0;left=0;bottom=0;right=0;overflow=hidden;" vertex="1" parent="OkiWoQopOx5-v4XApyoQ-39">
          <mxGeometry width="40" height="30" as="geometry" />
        </mxCell>
        <mxCell id="OkiWoQopOx5-v4XApyoQ-41" value="F_Id_Pelicula" style="shape=partialRectangle;html=1;whiteSpace=wrap;connectable=0;fillColor=none;top=0;left=0;bottom=0;right=0;align=left;spacingLeft=6;overflow=hidden;" vertex="1" parent="OkiWoQopOx5-v4XApyoQ-39">
          <mxGeometry x="40" width="140" height="30" as="geometry" />
        </mxCell>
        <mxCell id="OkiWoQopOx5-v4XApyoQ-44" value="Sala_Cine" style="shape=table;html=1;whiteSpace=wrap;startSize=30;container=1;collapsible=0;childLayout=tableLayout;fixedRows=1;rowLines=0;fontStyle=1;align=center;" vertex="1" parent="WIyWlLk6GJQsqaUBKTNV-1">
          <mxGeometry x="80" y="120" width="180" height="120" as="geometry" />
        </mxCell>
        <mxCell id="OkiWoQopOx5-v4XApyoQ-45" value="" style="shape=partialRectangle;html=1;whiteSpace=wrap;collapsible=0;dropTarget=0;pointerEvents=0;fillColor=none;top=0;left=0;bottom=1;right=0;points=[[0,0.5],[1,0.5]];portConstraint=eastwest;" vertex="1" parent="OkiWoQopOx5-v4XApyoQ-44">
          <mxGeometry y="30" width="180" height="30" as="geometry" />
        </mxCell>
        <mxCell id="OkiWoQopOx5-v4XApyoQ-46" value="1" style="shape=partialRectangle;html=1;whiteSpace=wrap;connectable=0;fillColor=none;top=0;left=0;bottom=0;right=0;overflow=hidden;" vertex="1" parent="OkiWoQopOx5-v4XApyoQ-45">
          <mxGeometry width="40" height="30" as="geometry" />
        </mxCell>
        <mxCell id="OkiWoQopOx5-v4XApyoQ-47" value="Id_SC" style="shape=partialRectangle;html=1;whiteSpace=wrap;connectable=0;fillColor=none;top=0;left=0;bottom=0;right=0;align=left;spacingLeft=6;overflow=hidden;" vertex="1" parent="OkiWoQopOx5-v4XApyoQ-45">
          <mxGeometry x="40" width="140" height="30" as="geometry" />
        </mxCell>
        <mxCell id="OkiWoQopOx5-v4XApyoQ-48" value="" style="shape=partialRectangle;html=1;whiteSpace=wrap;collapsible=0;dropTarget=0;pointerEvents=0;fillColor=none;top=0;left=0;bottom=0;right=0;points=[[0,0.5],[1,0.5]];portConstraint=eastwest;" vertex="1" parent="OkiWoQopOx5-v4XApyoQ-44">
          <mxGeometry y="60" width="180" height="30" as="geometry" />
        </mxCell>
        <mxCell id="OkiWoQopOx5-v4XApyoQ-49" value="2" style="shape=partialRectangle;html=1;whiteSpace=wrap;connectable=0;fillColor=none;top=0;left=0;bottom=0;right=0;overflow=hidden;" vertex="1" parent="OkiWoQopOx5-v4XApyoQ-48">
          <mxGeometry width="40" height="30" as="geometry" />
        </mxCell>
        <mxCell id="OkiWoQopOx5-v4XApyoQ-50" value="&lt;div&gt;Capacida_Max&lt;/div&gt;" style="shape=partialRectangle;html=1;whiteSpace=wrap;connectable=0;fillColor=none;top=0;left=0;bottom=0;right=0;align=left;spacingLeft=6;overflow=hidden;" vertex="1" parent="OkiWoQopOx5-v4XApyoQ-48">
          <mxGeometry x="40" width="140" height="30" as="geometry" />
        </mxCell>
        <mxCell id="OkiWoQopOx5-v4XApyoQ-51" value="" style="shape=partialRectangle;html=1;whiteSpace=wrap;collapsible=0;dropTarget=0;pointerEvents=0;fillColor=none;top=0;left=0;bottom=0;right=0;points=[[0,0.5],[1,0.5]];portConstraint=eastwest;" vertex="1" parent="OkiWoQopOx5-v4XApyoQ-44">
          <mxGeometry y="90" width="180" height="30" as="geometry" />
        </mxCell>
        <mxCell id="OkiWoQopOx5-v4XApyoQ-52" value="" style="shape=partialRectangle;html=1;whiteSpace=wrap;connectable=0;fillColor=none;top=0;left=0;bottom=0;right=0;overflow=hidden;" vertex="1" parent="OkiWoQopOx5-v4XApyoQ-51">
          <mxGeometry width="40" height="30" as="geometry" />
        </mxCell>
        <mxCell id="OkiWoQopOx5-v4XApyoQ-53" value="" style="shape=partialRectangle;html=1;whiteSpace=wrap;connectable=0;fillColor=none;top=0;left=0;bottom=0;right=0;align=left;spacingLeft=6;overflow=hidden;" vertex="1" parent="OkiWoQopOx5-v4XApyoQ-51">
          <mxGeometry x="40" width="140" height="30" as="geometry" />
        </mxCell>
        <mxCell id="OkiWoQopOx5-v4XApyoQ-54" value="4" style="shape=partialRectangle;html=1;whiteSpace=wrap;connectable=0;fillColor=none;top=0;left=0;bottom=0;right=0;overflow=hidden;" vertex="1" parent="WIyWlLk6GJQsqaUBKTNV-1">
          <mxGeometry x="-280" y="240" width="40" height="30" as="geometry" />
        </mxCell>
        <mxCell id="OkiWoQopOx5-v4XApyoQ-55" value="Sesion_Horario" style="shape=partialRectangle;html=1;whiteSpace=wrap;connectable=0;fillColor=none;top=0;left=0;bottom=0;right=0;align=left;spacingLeft=6;overflow=hidden;" vertex="1" parent="WIyWlLk6GJQsqaUBKTNV-1">
          <mxGeometry x="-240" y="240" width="140" height="30" as="geometry" />
        </mxCell>
        <mxCell id="OkiWoQopOx5-v4XApyoQ-56" value="5" style="shape=partialRectangle;html=1;whiteSpace=wrap;connectable=0;fillColor=none;top=0;left=0;bottom=0;right=0;overflow=hidden;" vertex="1" parent="WIyWlLk6GJQsqaUBKTNV-1">
          <mxGeometry x="-280" y="270" width="40" height="30" as="geometry" />
        </mxCell>
        <mxCell id="OkiWoQopOx5-v4XApyoQ-57" value="Capacidad_Max" style="shape=partialRectangle;html=1;whiteSpace=wrap;connectable=0;fillColor=none;top=0;left=0;bottom=0;right=0;align=left;spacingLeft=6;overflow=hidden;" vertex="1" parent="WIyWlLk6GJQsqaUBKTNV-1">
          <mxGeometry x="-240" y="270" width="140" height="30" as="geometry" />
        </mxCell>
        <mxCell id="OkiWoQopOx5-v4XApyoQ-58" value="3" style="shape=partialRectangle;html=1;whiteSpace=wrap;connectable=0;fillColor=none;top=0;left=0;bottom=0;right=0;overflow=hidden;" vertex="1" parent="WIyWlLk6GJQsqaUBKTNV-1">
          <mxGeometry x="80" y="210" width="40" height="30" as="geometry" />
        </mxCell>
        <mxCell id="OkiWoQopOx5-v4XApyoQ-59" value="&lt;div&gt;F_Id_Peliculas&lt;/div&gt;" style="shape=partialRectangle;html=1;whiteSpace=wrap;connectable=0;fillColor=none;top=0;left=0;bottom=0;right=0;align=left;spacingLeft=6;overflow=hidden;" vertex="1" parent="WIyWlLk6GJQsqaUBKTNV-1">
          <mxGeometry x="120" y="210" width="140" height="30" as="geometry" />
        </mxCell>
      </root>
    </mxGraphModel>
  </diagram>
</mxfile>
